<svg width="275" height="84" viewBox="0 0 275 84" fill="none" xmlns="http://www.w3.org/2000/svg">
<g clip-path="url(#clip0)">
<path fill-rule="evenodd" clip-rule="evenodd" d="M200.542 58.4772C194.435 58.4772 189.466 53.4892 189.466 47.3572C189.466 41.2492 194.435 36.2812 200.542 36.2812C206.674 36.2812 211.663 41.2492 211.663 47.3562C211.663 53.4892 206.674 58.4772 200.542 58.4772ZM200.542 33.5102C198.395 33.5074 196.276 34.0042 194.354 34.9611C192.431 35.9181 190.758 37.3091 189.466 39.0242V24.2092C189.452 23.845 189.298 23.5002 189.035 23.2474C188.773 22.9946 188.422 22.8533 188.058 22.8533C187.693 22.8533 187.343 22.9946 187.081 23.2474C186.818 23.5002 186.664 23.845 186.65 24.2092V59.8412C186.65 60.2146 186.798 60.5728 187.062 60.8368C187.326 61.1009 187.685 61.2492 188.058 61.2492C188.431 61.2492 188.79 61.1009 189.054 60.8368C189.318 60.5728 189.466 60.2146 189.466 59.8412V55.7342C192.605 59.8882 197.816 61.9982 203.155 61.0072C209.176 59.8912 213.816 54.7512 214.375 48.6522C215.127 40.4352 208.631 33.5102 200.542 33.5102V33.5102ZM182.154 43.0082V59.8402C182.154 60.2137 182.006 60.5718 181.742 60.8358C181.478 61.0999 181.119 61.2482 180.746 61.2482C180.373 61.2482 180.014 61.0999 179.75 60.8358C179.486 60.5718 179.338 60.2137 179.338 59.8402V43.0532C179.338 39.3202 176.319 36.2812 172.61 36.2812C168.876 36.2812 165.837 39.3002 165.837 43.0082V59.8632C165.837 60.2307 165.691 60.5831 165.431 60.8429C165.171 61.1028 164.819 61.2487 164.452 61.2487C164.084 61.2487 163.732 61.1028 163.472 60.8429C163.212 60.5831 163.066 60.2307 163.066 59.8632V43.3002C163.066 39.8652 160.613 36.7922 157.208 36.3422C156.256 36.2131 155.288 36.2889 154.368 36.5646C153.448 36.8403 152.598 37.3095 151.874 37.9408C151.15 38.5721 150.57 39.3508 150.171 40.2248C149.773 41.0988 149.566 42.0478 149.565 43.0082V59.8402C149.565 60.2137 149.417 60.5718 149.153 60.8358C148.889 61.0999 148.53 61.2482 148.157 61.2482C147.784 61.2482 147.425 61.0999 147.161 60.8358C146.897 60.5718 146.749 60.2137 146.749 59.8402V34.9182C146.763 34.554 146.917 34.2092 147.18 33.9564C147.442 33.7036 147.792 33.5623 148.157 33.5623C148.521 33.5623 148.872 33.7036 149.134 33.9564C149.397 34.2092 149.551 34.554 149.565 34.9182V36.2982C150.448 35.4142 151.497 34.713 152.651 34.2348C153.806 33.7565 155.043 33.5107 156.293 33.5112C157.931 33.5116 159.541 33.9324 160.97 34.7332C162.398 35.5341 163.597 36.6883 164.452 38.0852C165.306 36.688 166.505 35.5336 167.934 34.7325C169.362 33.9315 170.972 33.5106 172.61 33.5102C177.873 33.5102 182.154 37.7712 182.154 43.0102V43.0082ZM128.406 58.4782C122.274 58.4782 117.286 53.4882 117.286 47.3562C117.286 41.2492 122.274 36.2812 128.406 36.2812C134.513 36.2812 139.482 41.2492 139.482 47.3562C139.482 53.4892 134.513 58.4772 128.406 58.4772V58.4782ZM140.868 33.5102C140.103 33.5102 139.482 34.1302 139.482 34.8952V39.0232C138.19 37.308 136.517 35.9169 134.594 34.9599C132.672 34.0029 130.553 33.5063 128.406 33.5092C120.315 33.5092 113.818 40.4392 114.574 48.6572C115.135 54.7562 119.775 59.8942 125.798 61.0092C131.135 61.9962 136.345 59.8862 139.482 55.7342V59.8642C139.482 60.2318 139.628 60.5844 139.888 60.8443C140.148 61.1042 140.5 61.2502 140.868 61.2502C141.236 61.2502 141.588 61.1042 141.848 60.8443C142.108 60.5844 142.254 60.2318 142.254 59.8642V34.8942C142.254 34.1302 141.633 33.5102 140.868 33.5102V33.5102ZM97.847 58.4782C91.739 58.4782 86.771 53.4882 86.771 47.3562C86.771 41.2492 91.739 36.2812 97.847 36.2812C103.979 36.2812 108.967 41.2492 108.967 47.3562C108.967 53.4892 103.979 58.4772 97.847 58.4772V58.4782ZM97.847 33.5102C95.6997 33.5074 93.5811 34.0042 91.6588 34.9611C89.7365 35.9181 88.0631 37.3091 86.771 39.0242V24.2092C86.7612 23.8422 86.6085 23.4934 86.3455 23.2373C86.0824 22.9811 85.7297 22.8378 85.3625 22.8378C84.9953 22.8378 84.6426 22.9811 84.3795 23.2373C84.1165 23.4934 83.9638 23.8422 83.954 24.2092V59.8412C83.954 60.2148 84.1024 60.573 84.3665 60.8372C84.6307 61.1013 84.9889 61.2497 85.3625 61.2497C85.7361 61.2497 86.0943 61.1013 86.3585 60.8372C86.6226 60.573 86.771 60.2148 86.771 59.8412V55.7342C89.909 59.8882 95.121 61.9982 100.459 61.0072C106.481 59.8912 111.12 54.7512 111.679 48.6522C112.432 40.4372 105.936 33.5102 97.847 33.5102V33.5102ZM220.068 45.9872C220.741 40.4622 225.371 36.1732 230.965 36.1732C236.559 36.1732 241.189 40.4632 241.862 45.9862H220.068V45.9872ZM230.965 33.3972C223.38 33.3972 217.209 39.6672 217.209 47.3742C217.209 55.0652 223.355 61.3252 230.919 61.3512C230.997 61.3562 231.134 61.3612 231.322 61.3612C233.048 61.3612 239.085 60.8772 242.982 54.4392C243.165 54.1247 243.217 53.751 243.127 53.3984C243.037 53.0459 242.812 52.7427 242.501 52.5542C242.19 52.3657 241.817 52.307 241.463 52.3906C241.109 52.4742 240.802 52.6934 240.608 53.0012C237.029 58.9142 231.308 58.5972 231.073 58.5802C231.037 58.5771 231.001 58.5754 230.965 58.5752C225.371 58.5752 220.741 54.2852 220.068 48.7622H243.334C244.1 48.7622 244.721 48.1412 244.721 47.3732C244.721 39.6672 238.55 33.3972 230.965 33.3972ZM250.356 45.9872C251.028 40.4622 255.659 36.1732 261.252 36.1732C266.846 36.1732 271.477 40.4632 272.149 45.9862H250.356V45.9872ZM261.252 33.3972C253.667 33.3972 247.497 39.6672 247.497 47.3742C247.497 55.0652 253.643 61.3252 261.207 61.3512C261.284 61.3562 261.421 61.3612 261.609 61.3612C263.335 61.3612 269.373 60.8772 273.27 54.4392C273.453 54.1247 273.505 53.751 273.415 53.3984C273.325 53.0459 273.1 52.7427 272.789 52.5542C272.478 52.3657 272.105 52.307 271.751 52.3906C271.397 52.4742 271.09 52.6934 270.896 53.0012C267.317 58.9142 261.595 58.5972 261.36 58.5802C261.324 58.577 261.288 58.5754 261.252 58.5752C255.659 58.5752 251.028 54.2852 250.356 48.7622H273.621C274.387 48.7622 275.008 48.1412 275.008 47.3732C275.008 39.6672 268.837 33.3972 261.252 33.3972V33.3972ZM52.731 51.5562C47.783 51.5562 40.33 42.7762 39.61 41.9142L39.543 41.8412L39.61 41.7662C40.33 40.9062 47.783 32.1262 52.731 32.1262C57.936 32.1262 62.099 36.2902 62.099 41.8412C62.099 47.3932 57.936 51.5562 52.731 51.5562ZM46.274 53.6382C46.274 59.1762 42.576 63.3522 37.644 63.3522C33.12 63.3522 29.317 58.9052 29.317 53.6382V51.9432C30.722 51.1012 31.904 50.0392 33.317 48.7432C34.9025 47.2775 36.4039 45.7234 37.814 44.0882C38.558 44.9522 40.219 46.8382 42.293 48.7422C43.707 50.0392 44.92 51.1022 46.274 51.9432V53.6382V53.6382ZM22.896 51.5552C17.692 51.5552 13.529 47.3932 13.529 41.8412C13.529 36.2902 17.692 32.1272 22.896 32.1272C27.845 32.1272 35.298 40.9062 36.018 41.7672L36.079 41.8412L36.018 41.9152C35.298 42.7772 27.845 51.5552 22.896 51.5552ZM29.317 30.5232C29.317 25.2562 33.12 20.8082 37.644 20.8082C42.576 20.8082 46.274 24.9842 46.274 30.5222V31.7372C44.92 32.5802 43.706 33.6412 42.293 34.9392C40.7097 36.4047 39.2113 37.9592 37.805 39.5952C36.3968 37.9597 34.897 36.4052 33.313 34.9392C31.899 33.6422 30.722 32.5792 29.317 31.7382V30.5222V30.5232ZM52.731 29.3512C51.594 29.3512 50.38 29.6332 49.081 30.1962C48.933 23.2402 44.075 18.0332 37.662 18.0332C31.627 18.0332 26.702 23.4602 26.547 30.1972C25.248 29.6332 24.034 29.3512 22.896 29.3512C16.088 29.3512 10.754 34.8382 10.754 41.8412C10.754 48.8452 16.097 54.3312 22.905 54.3312C24.041 54.3312 25.153 54.0492 26.558 53.4882V53.6382C26.558 60.5252 31.562 66.1282 37.694 66.1282C44.208 66.1282 49.134 60.7582 49.134 53.6382V53.4882C50.489 54.0502 51.619 54.3312 52.755 54.3312C59.563 54.3312 64.885 48.8452 64.885 41.8412C64.885 34.8382 59.54 29.3512 52.731 29.3512V29.3512ZM72.853 56.0532C72.853 59.3782 70.414 63.5802 67.527 65.2302L43.151 79.1602C40.258 80.8132 35.37 80.8132 32.477 79.1602L8.101 65.2302C5.214 63.5802 2.775 59.3782 2.775 56.0542V27.9502C2.775 24.6222 5.206 20.3982 8.084 18.7262L32.511 4.53523C33.948 3.70023 35.881 3.28323 37.814 3.28323C39.747 3.28323 41.68 3.70023 43.117 4.53523L67.543 18.7272C70.421 20.3992 72.853 24.6232 72.853 27.9512V56.0542V56.0532ZM68.938 16.3262L44.511 2.13823C40.756 -0.0447735 34.872 -0.0447735 31.117 2.13823L6.69 16.3262C2.938 18.5082 0 23.6142 0 27.9522V56.0552C0 60.3982 2.953 65.4862 6.724 67.6422L31.1 81.5702C32.982 82.6462 35.398 83.1842 37.814 83.1842C40.23 83.1842 42.646 82.6442 44.528 81.5692L68.904 67.6392C72.675 65.4852 75.628 60.3962 75.628 56.0532V27.9512C75.628 23.6132 72.689 18.5072 68.938 16.3282V16.3262Z" fill="#E0E0E0"/>
<path fill-rule="evenodd" clip-rule="evenodd" d="M200.542 58.4772C194.435 58.4772 189.466 53.4892 189.466 47.3572C189.466 41.2492 194.435 36.2812 200.542 36.2812C206.674 36.2812 211.663 41.2492 211.663 47.3562C211.663 53.4892 206.674 58.4772 200.542 58.4772ZM200.542 33.5102C198.395 33.5074 196.276 34.0042 194.354 34.9611C192.431 35.9181 190.758 37.3091 189.466 39.0242V24.2092C189.452 23.845 189.298 23.5002 189.035 23.2474C188.773 22.9946 188.422 22.8533 188.058 22.8533C187.693 22.8533 187.343 22.9946 187.081 23.2474C186.818 23.5002 186.664 23.845 186.65 24.2092V59.8412C186.65 60.2146 186.798 60.5728 187.062 60.8368C187.326 61.1009 187.685 61.2492 188.058 61.2492C188.431 61.2492 188.79 61.1009 189.054 60.8368C189.318 60.5728 189.466 60.2146 189.466 59.8412V55.7342C192.605 59.8882 197.816 61.9982 203.155 61.0072C209.176 59.8912 213.816 54.7512 214.375 48.6522C215.127 40.4352 208.631 33.5102 200.542 33.5102V33.5102ZM182.154 43.0082V59.8402C182.154 60.2137 182.006 60.5718 181.742 60.8358C181.478 61.0999 181.119 61.2482 180.746 61.2482C180.373 61.2482 180.014 61.0999 179.75 60.8358C179.486 60.5718 179.338 60.2137 179.338 59.8402V43.0532C179.338 39.3202 176.319 36.2812 172.61 36.2812C168.876 36.2812 165.837 39.3002 165.837 43.0082V59.8632C165.837 60.2307 165.691 60.5831 165.431 60.8429C165.171 61.1028 164.819 61.2487 164.452 61.2487C164.084 61.2487 163.732 61.1028 163.472 60.8429C163.212 60.5831 163.066 60.2307 163.066 59.8632V43.3002C163.066 39.8652 160.613 36.7922 157.208 36.3422C156.256 36.2131 155.288 36.2889 154.368 36.5646C153.448 36.8403 152.598 37.3095 151.874 37.9408C151.15 38.5721 150.57 39.3508 150.171 40.2248C149.773 41.0988 149.566 42.0478 149.565 43.0082V59.8402C149.565 60.2137 149.417 60.5718 149.153 60.8358C148.889 61.0999 148.53 61.2482 148.157 61.2482C147.784 61.2482 147.425 61.0999 147.161 60.8358C146.897 60.5718 146.749 60.2137 146.749 59.8402V34.9182C146.763 34.554 146.917 34.2092 147.18 33.9564C147.442 33.7036 147.792 33.5623 148.157 33.5623C148.521 33.5623 148.872 33.7036 149.134 33.9564C149.397 34.2092 149.551 34.554 149.565 34.9182V36.2982C150.448 35.4142 151.497 34.713 152.651 34.2348C153.806 33.7565 155.043 33.5107 156.293 33.5112C157.931 33.5116 159.541 33.9324 160.97 34.7332C162.398 35.5341 163.597 36.6883 164.452 38.0852C165.306 36.688 166.505 35.5336 167.934 34.7325C169.362 33.9315 170.972 33.5106 172.61 33.5102C177.873 33.5102 182.154 37.7712 182.154 43.0102V43.0082ZM128.406 58.4782C122.274 58.4782 117.286 53.4882 117.286 47.3562C117.286 41.2492 122.274 36.2812 128.406 36.2812C134.513 36.2812 139.482 41.2492 139.482 47.3562C139.482 53.4892 134.513 58.4772 128.406 58.4772V58.4782ZM140.868 33.5102C140.103 33.5102 139.482 34.1302 139.482 34.8952V39.0232C138.19 37.308 136.517 35.9169 134.594 34.9599C132.672 34.0029 130.553 33.5063 128.406 33.5092C120.315 33.5092 113.818 40.4392 114.574 48.6572C115.135 54.7562 119.775 59.8942 125.798 61.0092C131.135 61.9962 136.345 59.8862 139.482 55.7342V59.8642C139.482 60.2318 139.628 60.5844 139.888 60.8443C140.148 61.1042 140.5 61.2502 140.868 61.2502C141.236 61.2502 141.588 61.1042 141.848 60.8443C142.108 60.5844 142.254 60.2318 142.254 59.8642V34.8942C142.254 34.1302 141.633 33.5102 140.868 33.5102V33.5102ZM97.847 58.4782C91.739 58.4782 86.771 53.4882 86.771 47.3562C86.771 41.2492 91.739 36.2812 97.847 36.2812C103.979 36.2812 108.967 41.2492 108.967 47.3562C108.967 53.4892 103.979 58.4772 97.847 58.4772V58.4782ZM97.847 33.5102C95.6997 33.5074 93.5811 34.0042 91.6588 34.9611C89.7365 35.9181 88.0631 37.3091 86.771 39.0242V24.2092C86.7612 23.8422 86.6085 23.4934 86.3455 23.2373C86.0824 22.9811 85.7297 22.8378 85.3625 22.8378C84.9953 22.8378 84.6426 22.9811 84.3795 23.2373C84.1165 23.4934 83.9638 23.8422 83.954 24.2092V59.8412C83.954 60.2148 84.1024 60.573 84.3665 60.8372C84.6307 61.1013 84.9889 61.2497 85.3625 61.2497C85.7361 61.2497 86.0943 61.1013 86.3585 60.8372C86.6226 60.573 86.771 60.2148 86.771 59.8412V55.7342C89.909 59.8882 95.121 61.9982 100.459 61.0072C106.481 59.8912 111.12 54.7512 111.679 48.6522C112.432 40.4372 105.936 33.5102 97.847 33.5102V33.5102ZM220.068 45.9872C220.741 40.4622 225.371 36.1732 230.965 36.1732C236.559 36.1732 241.189 40.4632 241.862 45.9862H220.068V45.9872ZM230.965 33.3972C223.38 33.3972 217.209 39.6672 217.209 47.3742C217.209 55.0652 223.355 61.3252 230.919 61.3512C230.997 61.3562 231.134 61.3612 231.322 61.3612C233.048 61.3612 239.085 60.8772 242.982 54.4392C243.165 54.1247 243.217 53.751 243.127 53.3984C243.037 53.0459 242.812 52.7427 242.501 52.5542C242.19 52.3657 241.817 52.307 241.463 52.3906C241.109 52.4742 240.802 52.6934 240.608 53.0012C237.029 58.9142 231.308 58.5972 231.073 58.5802C231.037 58.5771 231.001 58.5754 230.965 58.5752C225.371 58.5752 220.741 54.2852 220.068 48.7622H243.334C244.1 48.7622 244.721 48.1412 244.721 47.3732C244.721 39.6672 238.55 33.3972 230.965 33.3972ZM250.356 45.9872C251.028 40.4622 255.659 36.1732 261.252 36.1732C266.846 36.1732 271.477 40.4632 272.149 45.9862H250.356V45.9872ZM261.252 33.3972C253.667 33.3972 247.497 39.6672 247.497 47.3742C247.497 55.0652 253.643 61.3252 261.207 61.3512C261.284 61.3562 261.421 61.3612 261.609 61.3612C263.335 61.3612 269.373 60.8772 273.27 54.4392C273.453 54.1247 273.505 53.751 273.415 53.3984C273.325 53.0459 273.1 52.7427 272.789 52.5542C272.478 52.3657 272.105 52.307 271.751 52.3906C271.397 52.4742 271.09 52.6934 270.896 53.0012C267.317 58.9142 261.595 58.5972 261.36 58.5802C261.324 58.577 261.288 58.5754 261.252 58.5752C255.659 58.5752 251.028 54.2852 250.356 48.7622H273.621C274.387 48.7622 275.008 48.1412 275.008 47.3732C275.008 39.6672 268.837 33.3972 261.252 33.3972V33.3972ZM52.731 51.5562C47.783 51.5562 40.33 42.7762 39.61 41.9142L39.543 41.8412L39.61 41.7662C40.33 40.9062 47.783 32.1262 52.731 32.1262C57.936 32.1262 62.099 36.2902 62.099 41.8412C62.099 47.3932 57.936 51.5562 52.731 51.5562ZM46.274 53.6382C46.274 59.1762 42.576 63.3522 37.644 63.3522C33.12 63.3522 29.317 58.9052 29.317 53.6382V51.9432C30.722 51.1012 31.904 50.0392 33.317 48.7432C34.9025 47.2775 36.4039 45.7234 37.814 44.0882C38.558 44.9522 40.219 46.8382 42.293 48.7422C43.707 50.0392 44.92 51.1022 46.274 51.9432V53.6382V53.6382ZM22.896 51.5552C17.692 51.5552 13.529 47.3932 13.529 41.8412C13.529 36.2902 17.692 32.1272 22.896 32.1272C27.845 32.1272 35.298 40.9062 36.018 41.7672L36.079 41.8412L36.018 41.9152C35.298 42.7772 27.845 51.5552 22.896 51.5552ZM29.317 30.5232C29.317 25.2562 33.12 20.8082 37.644 20.8082C42.576 20.8082 46.274 24.9842 46.274 30.5222V31.7372C44.92 32.5802 43.706 33.6412 42.293 34.9392C40.7097 36.4047 39.2113 37.9592 37.805 39.5952C36.3968 37.9597 34.897 36.4052 33.313 34.9392C31.899 33.6422 30.722 32.5792 29.317 31.7382V30.5222V30.5232ZM52.731 29.3512C51.594 29.3512 50.38 29.6332 49.081 30.1962C48.933 23.2402 44.075 18.0332 37.662 18.0332C31.627 18.0332 26.702 23.4602 26.547 30.1972C25.248 29.6332 24.034 29.3512 22.896 29.3512C16.088 29.3512 10.754 34.8382 10.754 41.8412C10.754 48.8452 16.097 54.3312 22.905 54.3312C24.041 54.3312 25.153 54.0492 26.558 53.4882V53.6382C26.558 60.5252 31.562 66.1282 37.694 66.1282C44.208 66.1282 49.134 60.7582 49.134 53.6382V53.4882C50.489 54.0502 51.619 54.3312 52.755 54.3312C59.563 54.3312 64.885 48.8452 64.885 41.8412C64.885 34.8382 59.54 29.3512 52.731 29.3512V29.3512ZM72.853 56.0532C72.853 59.3782 70.414 63.5802 67.527 65.2302L43.151 79.1602C40.258 80.8132 35.37 80.8132 32.477 79.1602L8.101 65.2302C5.214 63.5802 2.775 59.3782 2.775 56.0542V27.9502C2.775 24.6222 5.206 20.3982 8.084 18.7262L32.511 4.53523C33.948 3.70023 35.881 3.28323 37.814 3.28323C39.747 3.28323 41.68 3.70023 43.117 4.53523L67.543 18.7272C70.421 20.3992 72.853 24.6232 72.853 27.9512V56.0542V56.0532ZM68.938 16.3262L44.511 2.13823C40.756 -0.0447735 34.872 -0.0447735 31.117 2.13823L6.69 16.3262C2.938 18.5082 0 23.6142 0 27.9522V56.0552C0 60.3982 2.953 65.4862 6.724 67.6422L31.1 81.5702C32.982 82.6462 35.398 83.1842 37.814 83.1842C40.23 83.1842 42.646 82.6442 44.528 81.5692L68.904 67.6392C72.675 65.4852 75.628 60.3962 75.628 56.0532V27.9512C75.628 23.6132 72.689 18.5072 68.938 16.3282V16.3262Z" fill="#E0E0DF"/>
</g>
<defs>
<clipPath id="clip0">
<rect width="275" height="83" fill="white" transform="translate(0 0.5)"/>
</clipPath>
</defs>
</svg>
